<svg width="60" height="60" viewBox="0 0 60 60" fill="none" xmlns="http://www.w3.org/2000/svg">
<path d="M30 0C13.4458 0 0 13.4266 0 30C0 46.5734 13.4458 60 30 60C46.5542 60 60 46.5734 60 30C59.9277 13.4266 46.5542 0 30 0ZM19.5181 52.1678H15.1084V15.7343H11.2048V11.5385H19.4458V52.1678H19.5181ZM36.5783 53.007C30.2169 53.007 24.7952 48.8811 22.9157 43.0769L26.9639 41.6783C28.2651 45.8042 32.0241 48.8112 36.506 48.8112C42.1446 48.8112 46.5542 44.2657 46.5542 38.6014C46.5542 33.007 42.0723 28.3916 36.506 28.3916C33.9036 28.3916 32.6024 28.7413 31.3012 29.3007L29.1325 25.3846L39.4699 15.7343H26.3855V11.5385H46.6988V14.8951L35.6386 24.8252L36.7229 24.6853C44.6747 24.6853 50.9639 30.6294 50.9639 38.6014C51.0361 46.5734 44.5301 53.007 36.5783 53.007Z" fill="#0E0F0F"/>
</svg>
