<svg width="144" height="283" viewBox="0 0 144 283" fill="none" xmlns="http://www.w3.org/2000/svg">
<path d="M50.0681 189.602C50.5643 203.551 47.6861 206.006 39.1507 205.908C30.516 205.81 33.7912 189.504 30.8137 165.142C27.8362 140.781 27.34 88.6202 32.898 86.2626C38.4559 83.9051 38.4559 93.0406 41.6319 102.373C44.7086 111.606 49.5718 175.653 50.0681 189.602Z" fill="white"/>
<path d="M18.6067 21.8227C16.9195 22.3139 15.927 23.9838 16.0263 25.6537C18.706 68.7772 28.1347 258.363 25.5542 262.293C23.6685 265.141 41.2356 266.222 58.6042 267.695C75.8736 269.169 88.9746 270.347 97.9071 271.428C103.763 272.116 100.984 256.988 99.5943 248.344C98.0063 238.029 96.9145 147.559 98.8003 108.364C100.388 74.9658 101.282 25.752 101.282 25.752C101.282 25.752 83.1189 22.0192 67.9337 21.528C56.0238 21.1351 43.8161 21.3315 39.3499 21.2333C35.7769 21.3315 21.6835 20.9386 18.6067 21.8227ZM139.691 3.45347C144.356 6.49864 142.867 32.137 142.966 47.2646C143.066 62.4904 142.867 239.699 142.966 243.432C143.066 247.165 132.545 274.866 125.498 281.349C119.444 286.85 61.9787 276.929 46.8928 275.848C35.6776 275.063 10.3691 276.438 9.57506 268.285C8.88031 261.31 -0.746884 24.1803 1.13886 19.8581C3.81859 13.4731 24.1647 0.408331 24.1647 0.408331C32.9979 -0.672212 135.126 0.408307 139.691 3.45347Z" fill="white"/>
<path d="M73.7889 136.95C73.7889 136.95 89.5696 139.406 87.2868 177.323C85.0041 215.339 53.6413 204.73 53.542 197.363C53.542 189.995 63.5663 192.058 66.3452 189.504C71.3077 184.887 73.9874 161.115 69.3227 153.65C63.9633 145.005 54.8323 148.836 52.7481 143.139C51.1601 138.817 64.658 120.153 66.4445 113.08C68.8264 102.962 63.467 100.408 58.306 105.025C54.5345 108.463 52.2518 108.955 50.0683 107.481C48.6788 106.499 47.7856 104.927 47.4878 103.257C46.7931 100.015 47.19 96.6757 48.6788 93.7287C52.4503 86.1649 63.9632 77.9135 77.0642 94.711C88.7756 109.839 73.7889 136.95 73.7889 136.95Z" fill="white"/>
</svg>
