<svg width="149" height="283" viewBox="0 0 149 283" fill="none" xmlns="http://www.w3.org/2000/svg">
<path d="M102.762 279.011C93.8266 281.563 84.7944 283.918 75.2767 282.642C75.6652 281.661 76.4421 281.661 76.9277 281.17C79.6471 279.208 79.7442 276.558 77.2191 274.399C76.0536 273.418 74.8882 272.535 73.7228 271.455C71.3919 269.297 70.8092 266.549 71.5861 263.409C73.2372 256.834 74.9853 250.357 75.5681 243.587C76.345 235.344 77.3162 226.904 74.694 218.76C73.917 216.404 73.1401 214.147 71.9746 211.989C70.8092 209.928 69.9351 209.928 68.5754 211.792C66.1474 215.031 65.759 219.152 64.6906 222.979C62.4569 231.026 63.331 239.465 62.7482 247.708C62.3598 253.301 61.2914 258.699 60.126 264.096C59.5433 266.647 57.6009 267.923 55.7556 269.198C54.1046 270.376 53.4247 271.652 54.3959 273.909C51.2881 272.633 49.4428 270.082 47.4033 267.628C45.0724 264.783 43.0329 261.839 42.0617 257.815C40.9934 253.105 40.9934 248.395 41.2848 243.587C41.9646 230.83 44.2955 218.367 47.112 206.101C48.8601 198.25 51.191 190.596 53.5219 182.942C56.5326 172.638 59.8346 162.531 62.3598 152.031C63.6223 146.83 64.5935 141.531 65.3705 136.134C66.9244 125.34 67.7014 114.545 67.41 103.555C67.2158 99.0407 66.0503 94.723 64.982 90.3071C64.8849 90.0128 64.7878 89.7183 64.5935 89.4239C64.3022 88.9333 63.4281 88.5408 63.7194 87.952C64.1079 87.2651 64.8849 87.7557 65.4676 87.952C69.838 89.4239 73.1401 92.5641 76.4421 95.9005C78.0932 97.6669 79.7442 99.4332 81.6866 101.003C85.28 103.849 89.8447 104.045 93.4381 101.2C96.5459 98.7463 99.4595 95.9005 101.79 92.466C102.859 90.8959 103.247 89.0314 104.024 87.3632C104.607 86.0875 105.287 84.7137 105.967 83.438C106.646 82.0642 107.715 81.6717 109.074 82.0642C112.085 82.9474 112.376 83.5362 111.697 86.8726C109.948 95.2137 109.948 103.751 109.074 112.092C108.006 121.807 108.686 131.227 111.017 140.55C111.988 144.475 111.891 148.695 112.474 152.718C113.542 159.881 114.999 167.045 116.553 174.11C118.398 182.255 120.146 190.4 122.186 198.545C123.642 204.236 125.488 209.83 126.944 215.521C129.372 225.138 131.509 234.853 131.606 244.862C131.606 251.437 130.732 257.815 127.721 263.703C127.139 264.783 126.75 265.862 126.556 267.138C126.265 269.297 123.739 271.455 121.894 271.455C121.117 271.455 121.311 270.867 121.409 270.376C121.7 268.904 121.603 267.53 121.214 266.156C120.535 263.507 119.563 262.427 117.038 262.329C114.902 262.231 112.959 261.937 111.211 260.465C109.948 259.385 109.172 258.012 108.686 256.147C106.938 248.886 106.841 241.428 106.841 233.97C106.938 223.47 105.675 213.068 103.344 202.961C102.859 200.998 102.082 199.133 101.208 197.367C100.625 196.19 100.042 196.386 99.2653 197.073C97.6142 198.545 97.0315 200.704 96.7402 202.862C95.8661 207.965 95.3805 213.068 95.0891 218.171C94.5064 226.512 93.7295 234.853 93.341 243.194C93.0496 250.063 93.9237 256.932 94.7978 263.703C95.0891 266.156 96.2546 268.217 98.0027 269.787C98.4883 270.18 98.9739 270.474 98.8768 271.357C98.3912 274.792 99.5566 277.049 102.276 278.423C102.373 278.423 102.47 278.619 102.567 278.717C102.762 278.717 102.762 278.815 102.762 279.011Z" fill="white"/>
<path d="M0.00824981 81.5739C-0.08887 76.8636 0.688088 73.1347 1.46505 69.5039C2.14489 66.56 3.79592 64.4992 6.02968 63.1254C10.5943 60.2796 15.4503 58.4152 20.6948 59.0039C20.9861 59.0039 21.2775 59.0039 21.5688 59.0039C24.8709 58.0226 26.9104 59.6909 28.5615 62.7329C30.8923 67.1488 32.6405 71.7609 34.3887 76.4711C38.8562 88.5411 44.9747 99.2373 52.6472 108.952C56.4349 113.761 59.3484 119.452 61.1937 125.634C62.262 129.167 61.388 132.602 60.611 136.036C58.96 143.2 56.9205 150.363 55.8521 157.723C55.4637 160.274 53.4241 161.844 51.4817 163.022C50.7048 163.513 50.1221 162.826 49.8307 162.041C46.9171 155.466 43.1294 149.676 39.9245 143.2C37.5936 138.489 34.2915 134.564 30.5039 131.032C24.8709 125.732 18.5581 121.218 13.3137 115.429C9.42887 111.111 6.32104 106.106 3.79592 100.709C1.07657 94.4289 0.299609 87.6579 0.00824981 81.5739Z" fill="white"/>
<path d="M85.9601 33.6861C91.9815 33.6861 98.1001 33.3917 103.83 35.9431C108.977 38.2001 113.833 40.8496 117.815 45.3636C119.952 47.8169 120.438 50.5645 119.758 53.8028C118.787 58.0224 116.747 61.7514 114.708 65.2841C111.503 70.8775 108.589 76.6672 104.996 81.8681C102.276 85.6951 99.1684 89.0315 94.7009 90.4054C93.0498 90.896 91.4959 90.7979 89.942 90.6016C82.2695 89.1297 75.4711 85.7932 70.518 78.6297C67.5073 74.312 65.1765 69.4055 64.011 64.1065C63.2341 60.7701 61.9715 57.9243 60.3205 55.1766C58.5723 52.2327 57.6982 48.8963 57.1155 45.5599C56.6299 42.3216 58.2809 39.1814 61.0974 37.7095C64.3995 36.0413 67.8958 35.3543 71.3921 34.5693C76.3452 33.4899 81.1041 33.7843 85.9601 33.6861Z" fill="white"/>
<path d="M114.513 148.793C114.513 145.457 114.804 142.807 113.833 140.256C113.639 139.569 114.125 139.275 114.513 139.078C118.398 137.508 122.186 136.625 126.362 138.293C133.549 141.139 137.142 147.812 140.638 154.681C145.009 163.022 147.145 172.148 148.019 181.765C148.505 187.26 147.922 192.854 147.34 198.349C146.368 206.494 145.009 214.541 144.426 222.783C144.135 227.199 142.969 231.517 142.095 235.835C141.707 237.405 140.541 237.797 139.473 238.386C138.89 238.68 138.307 238.877 137.725 239.073C135.2 239.76 135.005 239.466 134.131 236.718C131.606 228.573 130.441 220.036 128.304 211.695C127.139 207.279 126.265 202.863 125.099 198.447C123.934 194.326 122.477 190.204 121.312 186.083C119.563 179.312 117.718 172.541 116.553 165.672C115.484 159.882 114.416 153.994 114.513 148.793Z" fill="white"/>
<path d="M132.091 9.05554C131.799 16.7097 130.537 24.2657 129.76 31.8217C129.469 34.7657 126.555 36.7283 123.836 36.2376C119.854 35.4526 116.552 33.1956 112.958 31.4292C109.462 29.761 106.257 27.7003 103.44 24.8545C102.858 24.2657 102.081 24.1676 101.401 23.8732C98.293 22.8919 97.6132 21.0274 98.3902 17.4947C100.041 10.4294 104.509 6.60229 109.947 3.85465C112.375 2.67709 114.803 1.49953 117.329 0.518228C121.408 -1.14999 128.692 1.4014 131.314 5.42474C131.994 6.50417 132.285 7.68171 132.091 9.05554ZM120.922 9.05554C119.368 9.74245 118.105 10.8219 116.843 11.9013C113.541 15.0415 111.016 19.2611 107.325 22.0087C106.451 22.6956 107.034 22.99 107.617 23.2844C110.433 24.8545 113.152 26.4246 115.969 27.9947C117.329 28.7797 118.105 27.9947 118.591 26.719C118.882 25.9339 118.98 24.9526 119.174 24.0695C119.854 20.2424 119.757 16.3172 120.631 12.4901C120.728 11.5088 121.31 10.4294 120.922 9.05554Z" fill="white"/>
<path d="M46.7234 18.4753C46.6263 14.8445 46.6263 11.1155 47.6946 7.58283C48.6658 4.05014 50.6082 2.2838 53.9102 2.18567C59.6403 1.98941 64.3992 4.73705 68.8667 8.466C71.3918 10.6249 73.5284 13.2744 75.6651 15.9239C78.4816 19.3585 77.996 22.8912 74.4996 25.4425C72.2659 27.1108 69.935 28.5827 67.4099 29.3677C62.9424 30.7416 58.8634 33.5873 54.1045 33.7836C53.8131 33.7836 53.5218 33.8817 53.2304 33.9798C50.6082 35.2555 49.1514 34.4705 48.0831 31.4285C47.0147 28.3864 46.9176 25.1481 46.8205 22.008C46.7234 20.8304 46.7234 19.6528 46.7234 18.4753ZM55.6584 26.522C54.9786 28.3864 55.6584 28.4846 56.921 27.9939C58.7662 27.307 60.5144 26.3257 62.2625 25.2463C64.9819 23.5781 65.5646 19.1622 63.6222 16.5127C61.8741 14.1576 60.1259 11.8024 58.3778 9.54543C57.795 8.76039 57.1152 7.48472 56.3382 7.87724C55.5613 8.26976 55.6584 9.74171 55.6584 10.723C55.6584 15.9239 55.6584 21.2229 55.6584 26.522Z" fill="white"/>
</svg>
