<svg width="139" height="283" viewBox="0 0 139 283" fill="none" xmlns="http://www.w3.org/2000/svg">
<path d="M83.579 181.027C83.2923 184.567 82.9101 187.811 82.8145 191.055C82.719 196.658 82.4322 202.262 82.05 207.865C81.3811 217.794 82.3367 227.723 82.5278 237.652C82.7189 245.025 83.4834 252.398 83.579 259.771C83.6745 266.456 82.6234 272.846 78.0367 278.057C76.7945 279.531 75.3611 280.711 73.5455 281.399C67.5255 283.365 61.5054 283.66 55.4854 281.497C49.9431 279.433 46.8853 275.009 44.9741 269.504C42.1075 261.148 41.0563 252.398 41.1519 243.551C41.1519 236.571 40.9608 229.591 40.7697 222.611C40.5786 215.238 40.1008 207.964 39.4319 200.591C38.9541 195.38 32.5518 169.722 30.1629 162.153C28.1562 155.763 17.6451 132.169 15.925 126.074C12.9628 118.799 10.8605 113.589 9.04496 108.772C6.17827 101.104 1.11378 89.7002 0.444886 83.1136C-2.80403 44.184 12.6761 30.2244 16.5939 25.7023C20.225 21.4751 24.2384 17.6411 28.5384 14.0037C33.4118 9.97314 52.332 1.61704 56.4409 0.633971C60.9321 -0.447407 80.9989 -0.0541784 86.3501 1.12551C96.8613 3.18996 106.321 7.61377 115.304 13.5122C115.973 14.0037 116.833 14.6919 117.884 15.5766C127.439 24.4243 133.173 36.7127 134.224 49.8858C135.084 60.8962 135.275 69.5472 135.084 73.6761C134.797 79.9678 135.944 102.972 136.326 108.182C136.708 112.999 136.613 117.914 137.377 122.633C138.046 127.155 138.715 131.481 138.428 136.101C138.142 140.23 136.422 143.671 134.224 146.915C132.982 148.684 130.975 148.684 129.255 148.783C126.484 148.979 123.713 148.488 121.133 147.603C119.89 147.21 119.317 147.406 118.935 148.684C117.215 154.091 117.119 159.597 117.693 165.298C118.17 170.312 118.266 175.424 117.597 180.438C117.215 183.485 115.686 185.746 112.915 186.828C104.219 189.973 95.7146 189.973 87.5923 184.96C85.8723 183.977 85.1079 182.305 83.579 181.027ZM60.4543 136.593C65.901 137.281 70.5833 135.806 75.17 134.233C82.6234 131.579 89.5034 127.745 95.4279 122.24C97.7213 120.175 100.11 118.111 101.735 115.457C104.984 110.148 107.85 104.643 109.666 98.6461C112.819 88.2256 114.444 77.4118 115.304 66.4997C115.495 64.4353 115.495 62.2725 115.017 60.2081C113.584 54.408 111.673 48.7061 109.666 43.1026C107.086 36.0245 104.506 28.8481 99.6324 23.048C96.0013 18.6242 92.179 14.2987 85.8723 13.4139C80.0433 12.6274 74.5011 13.4139 69.1499 15.38C61.6965 18.0343 55.2943 22.7531 50.1342 29.0447C45.3564 34.9431 41.8208 41.628 38.9541 48.7061C35.2274 57.6521 33.5074 67.1879 31.8829 76.822C31.5007 78.8864 31.2141 81.0492 31.2141 83.1136C31.2141 90.9782 31.4051 98.9411 33.3163 106.609C33.9851 109.362 34.6541 112.114 35.6096 114.769C37.3296 119.389 40.1008 123.223 42.8719 127.057C44.4008 129.22 46.0253 131.382 48.3186 132.955C52.2364 135.511 56.1543 137.281 60.4543 136.593Z" fill="white"/>
<path d="M47.84 49.8852C51.9489 50.6717 55.7712 52.6378 59.4979 55.1938C62.5557 57.3566 63.6069 60.9939 65.6135 63.9431C65.9958 64.4347 65.9957 65.5161 66.7602 65.3194C67.4291 65.2211 67.1424 64.2381 67.4291 63.7465C69.1491 59.5193 71.3469 55.587 73.3536 51.5565C75.9336 46.3462 78.9914 41.4308 81.7625 36.3189C82.7181 34.6476 83.8648 33.0747 84.9159 31.4035C85.3937 30.617 86.1582 30.7154 86.9226 30.912C92.4649 32.0917 97.4338 34.6476 101.447 38.7765C103.263 40.6444 101.925 42.6105 101.065 44.1834C98.1027 49.7869 94.6627 55.1938 91.8916 60.8956C89.7893 65.1228 87.687 69.35 84.6292 72.8891C82.0492 75.9366 79.7559 79.2791 76.4114 81.6384C75.4558 82.3266 74.6914 82.4249 73.7358 82.2283C67.1425 80.557 61.6957 77.2146 57.8734 71.2179C53.7645 64.9262 50.229 58.3396 46.7889 51.6548C45.8334 50.2785 46.12 49.8852 47.84 49.8852Z" fill="white"/>
</svg>
