<svg width="149" height="283" viewBox="0 0 149 283" fill="none" xmlns="http://www.w3.org/2000/svg">
<path d="M128.37 101.087C131.07 99.5346 133.67 99.091 136.27 100.089C139.669 101.309 143.069 102.751 145.469 105.967C146.269 107.076 146.769 108.517 147.169 109.959C148.969 116.391 148.069 122.823 146.569 129.033C143.969 139.457 140.669 149.66 135.87 159.086C132.77 165.185 129.97 171.395 126.97 177.606C126.37 178.825 125.97 180.045 125.17 181.043C123.37 183.483 122.57 186.255 121.871 189.25C119.971 197.9 116.971 206.106 113.771 214.201C111.971 218.748 110.271 223.295 108.271 227.731C107.071 230.281 105.571 232.721 104.071 235.161C103.572 235.937 102.872 236.713 102.172 237.046C99.0718 238.709 96.3719 240.262 93.2721 242.036C89.7723 244.032 85.9725 245.363 82.0727 246.139C78.0729 246.805 74.5731 246.916 71.0733 246.805C62.4738 246.472 55.5742 245.363 47.3747 242.036C43.8749 240.595 40.1751 239.042 36.7753 237.268C34.0754 235.715 32.8755 234.717 32.0755 232.943C26.2758 220.522 22.676 207.215 19.0762 193.907C16.4764 184.37 13.9765 174.722 11.6767 165.074C9.27679 155.094 7.87686 145.002 6.47694 134.8C4.97703 123.71 4.07708 112.62 3.47711 101.531C3.07713 94.9878 3.17713 88.445 3.17713 81.9021C3.17713 78.5752 4.77704 75.9137 7.37689 74.3611C11.3767 71.9214 15.3764 69.5926 19.4762 67.3747C29.2757 62.1625 39.6751 59.7228 50.4745 58.9466C59.174 58.2812 67.8735 57.8376 76.573 58.503C85.1726 59.1684 93.6721 60.61 102.072 63.0497C104.871 63.826 107.671 64.6023 110.471 65.3785C114.971 66.8202 119.271 68.9272 123.27 71.6996C125.27 73.1413 126.67 75.3592 127.17 77.9098C127.87 82.1239 128.47 86.3379 127.87 90.7738C127.37 94.1007 128.17 97.5384 128.37 101.087ZM23.776 112.953C23.976 114.173 31.0756 155.759 31.9755 160.971C32.6755 165.185 40.3751 199.008 43.6749 211.651C44.4748 214.645 45.5748 217.417 46.5747 220.301C46.7747 220.855 54.9742 224.293 56.3742 224.736C55.8742 219.968 55.3742 215.754 55.0742 211.429C54.1743 200.894 50.6745 147.331 50.5745 143.893C50.2745 137.572 49.7745 122.49 49.6745 121.27C40.575 120.05 32.2755 117.389 23.776 112.953ZM115.871 78.1316C111.771 70.9234 89.8723 69.4817 88.0724 69.2599C84.1726 68.8163 66.9736 67.9292 62.2738 68.04C57.7741 68.04 44.9748 69.2599 33.4754 71.8105C26.6758 73.5849 20.8761 74.9156 17.4763 78.1316C15.5764 79.9059 15.6764 83.3437 17.7763 85.0072C23.176 89.2212 32.3755 90.552 35.0753 90.7738C40.1751 91.3283 55.5742 91.7718 68.4735 91.4392C72.3733 91.3283 76.273 91.1065 80.0728 90.552C87.0724 89.6648 91.6722 89.2212 97.8718 88.1123C102.972 87.336 115.871 83.3437 115.871 78.1316ZM137.77 107.963C136.77 108.85 135.97 109.293 135.47 109.959C132.97 113.064 130.47 116.169 128.07 119.385C127.67 119.939 127.47 120.827 127.47 121.603C127.17 127.924 126.97 134.356 126.77 140.677C126.77 142.119 126.37 143.56 126.97 145.002C127.87 143.117 128.57 141.121 129.17 139.235C131.87 131.251 134.57 123.266 137.17 115.393C137.97 113.175 138.47 110.957 137.77 107.963Z" fill="white"/>
<path d="M32.3754 240.041C38.8751 243.479 45.1747 245.697 52.1743 248.469C60.1739 251.685 68.5734 250.798 77.0729 249.911C83.8726 249.245 90.5722 248.026 96.8718 245.031C99.9717 243.59 102.872 241.815 105.871 240.152C106.371 239.93 107.671 238.71 107.771 238.156C109.371 233.942 110.371 231.835 112.371 226.733C113.071 224.626 113.571 223.628 114.071 222.298C114.471 221.3 114.671 220.302 114.971 219.303C115.171 218.416 115.471 217.418 115.671 216.864C115.971 216.42 117.571 216.198 118.771 216.42C122.77 217.196 125.37 217.973 128.77 220.302C132.17 222.741 133.57 224.183 136.57 228.508C139.469 232.944 139.069 240.152 138.57 244.92C137.67 252.794 133.97 258.893 128.57 263.995C122.87 269.429 116.371 272.977 109.371 275.639C101.472 278.744 93.272 280.74 84.8725 281.849C72.9732 283.512 62.2738 283.069 50.2744 282.403C39.2751 281.738 29.7756 278.744 19.9761 272.977C15.8764 270.538 9.97669 266.323 6.57688 262.775C1.47716 257.674 -0.422733 249.689 0.0772392 242.481C0.7772 232.278 4.47699 227.953 11.1766 220.856C14.1765 217.64 17.6763 216.198 21.776 215.977C22.676 215.977 23.1759 216.198 23.7759 216.975C24.4759 220.967 26.0758 231.724 27.6757 235.716C28.4757 236.936 29.8756 238.378 32.3754 240.041Z" fill="white"/>
<path d="M135.67 3.2776C133.07 9.82048 130.27 16.1416 127.27 22.2409C122.47 31.667 118.071 41.315 113.271 50.7412C111.871 53.4027 110.071 55.7315 108.271 58.1712C107.371 59.3911 100.072 54.9552 101.272 52.4046C102.271 50.1867 105.371 45.1964 106.371 42.9785C111.071 33.4414 115.571 23.6825 120.47 14.2563C122.97 9.48779 126.17 5.27373 129.07 0.837883C129.57 -0.0492872 130.27 -0.160183 131.17 0.172505C132.87 0.837883 134.37 1.72505 135.67 3.2776Z" fill="white"/>
<path d="M85.5718 30.8918C86.6717 25.5688 88.1716 20.3567 89.6715 15.1445C89.9715 14.0356 90.4715 13.0375 91.0715 12.1503C91.8714 11.0414 92.7714 10.4869 94.1713 10.9305C95.5712 11.3741 96.2712 12.2612 96.5711 13.8138C97.3711 18.0278 97.1711 22.2419 96.5711 26.4559C95.5712 33.6642 94.3713 40.8725 93.1713 48.0807C92.3714 52.6275 91.6714 52.9601 87.6717 51.8512C84.1718 50.8531 83.8719 50.6313 83.6719 46.6391C83.7719 46.0846 84.6718 35.4385 85.5718 30.8918Z" fill="white"/>
</svg>
