<svg width="150" height="283" viewBox="0 0 150 283" fill="none" xmlns="http://www.w3.org/2000/svg">
<path d="M132.143 58.4756C131.917 58.0284 131.692 57.5813 131.467 57.2459C127.523 51.5448 121.889 48.0794 115.241 46.4026C111.072 45.3966 106.678 45.2848 102.396 45.3966C94.8465 45.6201 87.6352 47.4087 80.7618 50.427C78.959 51.2095 77.1562 52.2155 75.6913 53.4452C73.0998 55.7927 70.5082 58.252 68.1419 60.7113C65.2123 63.8413 64.0855 68.201 65.0996 72.2253C66.1137 76.8085 67.0152 81.5036 67.8039 86.1986C68.7053 91.4526 75.9167 122.865 76.8181 129.684C77.0435 131.137 76.9308 132.702 77.0435 134.267C77.1562 136.502 77.4942 136.838 79.6351 137.173C80.0858 137.285 92.4803 141.197 101.833 145.557C107.692 148.24 111.974 153.494 113.213 159.642C113.664 162.213 113.551 165.232 113.326 168.585C112.988 173.504 111.861 178.422 109.945 182.894C108.593 186.247 107.241 189.489 105.889 191.166C101.495 196.979 94.7339 204.245 88.6493 206.593C86.5084 207.375 84.4802 208.605 82.2266 209.723C82.5647 212.853 83.1281 215.983 83.3534 219.224C83.6915 225.708 83.9168 232.303 84.2548 238.787C84.4802 245.271 84.8182 251.866 84.9309 258.35C84.9309 259.579 85.607 260.138 86.6211 260.809C92.3676 264.386 98.0015 268.075 103.635 271.652C104.424 272.099 104.988 272.77 106.114 273.553C99.4663 276.124 93.9451 274.782 88.3112 270.646C88.5366 274.894 89.8887 278.248 90.3394 282.048C87.2971 283.166 84.3675 283.278 81.3252 282.495C80.3111 282.272 80.0858 281.378 79.8604 280.372C79.5224 278.024 79.0717 275.677 78.621 272.994C76.8181 274.112 76.1421 275.788 74.9026 277.13C73.8885 278.248 73.4378 279.924 71.6349 280.148C69.156 280.483 66.6771 280.819 63.9729 279.254C64.5363 278.359 65.0996 277.577 65.5503 276.794C68.818 271.764 72.0857 266.734 75.2406 261.703C75.6913 260.921 75.804 259.803 75.6913 258.909C75.3533 253.431 74.6772 248.065 74.5646 242.588C74.3392 233.198 74.3392 223.808 74.2265 214.418C74.2265 213.523 74.2265 212.741 74.2265 211.735C68.5927 212.517 63.2968 213.412 57.8883 213.859C52.5924 214.194 47.2966 213.97 41.7754 213.97C41.4373 215.871 41.212 217.1 41.212 219.113C41.212 220.119 41.3247 222.802 41.3247 223.808C41.212 230.515 41.3247 235.545 41.55 242.476C41.7754 250.413 42.1134 257.679 42.9021 265.728C48.198 268.746 54.2826 270.982 59.4658 275.341C56.4235 276.683 53.9446 276.347 51.353 276.235C48.536 276.124 46.7332 273.888 43.9162 272.658C45.043 276.012 45.9444 278.918 47.0712 282.16C43.8036 282.943 40.7613 283.054 37.719 281.713C37.1556 281.489 36.9302 280.595 36.7049 279.924C36.1415 278.136 35.6908 276.347 35.0147 274.112C33.3246 275.9 31.9724 277.465 30.5076 278.918C27.916 281.601 24.6484 281.825 21.1554 279.589C22.7329 277.8 24.1977 276.124 25.7751 274.447C27.916 272.099 30.1696 269.64 32.1978 267.181C32.7612 266.622 32.9865 265.616 32.9865 264.833C32.9865 258.797 32.9865 252.649 32.8738 246.612C32.7612 241.47 32.4231 236.439 32.4231 231.297C32.3105 225.708 32.3105 220.007 32.3105 214.418C32.3105 213.747 32.1978 213.188 32.1978 212.405C30.733 211.846 29.3808 211.288 27.916 210.952C25.0991 210.17 22.7329 208.716 20.4793 207.151C16.0849 203.91 12.5919 199.885 9.66225 195.302C9.54957 195.079 9.43689 194.855 9.32421 194.631C3.80301 185.688 0.873391 175.516 0.535358 165.008C0.422681 159.978 0.535358 155.059 1.09875 150.029C1.43678 146.451 3.80301 127.112 4.47908 123.759C5.71853 117.163 5.94388 114.928 7.8594 103.973C9.09886 97.0419 10.2256 92.2351 10.789 87.7636C11.3524 83.9629 11.4651 82.3979 12.1412 76.3614C12.9299 70.4367 13.0426 64.2885 13.0426 58.252C12.9299 49.9798 12.4792 43.7198 12.5919 35.3358C12.5919 33.9944 12.8172 29.8583 13.1553 27.5107C14.3947 18.7914 19.3525 11.0781 26.6766 6.27133C26.7892 6.27133 26.7892 6.15955 26.9019 6.15955C29.1555 4.70632 31.6344 3.47667 34.1133 2.35881C38.8458 0.346654 44.1416 -0.547637 49.2121 0.346654C50.1135 0.45844 50.9023 0.682013 51.8037 0.905586C57.5502 2.58238 62.3954 5.93597 67.1278 9.62492C69.6067 11.5253 71.8603 13.6492 74.6772 15.1025C77.4942 16.5557 80.0858 18.5678 83.0154 20.1328C86.0577 21.8096 89.2127 23.2629 92.4803 24.6043C97.8888 26.84 103.748 27.5107 109.382 29.0758C115.241 30.6408 120.988 32.2058 126.509 34.5533C127.185 34.8886 128.086 35.224 128.988 35.6712C136.087 39.1365 139.242 47.8559 135.298 54.7866C134.734 55.7927 134.284 56.4634 133.833 56.9106C133.044 57.8049 132.932 57.9166 132.143 58.4756ZM51.691 27.9579C49.4375 28.1815 48.198 28.5168 45.8318 30.0818C44.0289 31.3115 43.9162 33.4354 45.7191 34.6651C46.8459 35.4476 47.9726 36.1183 49.2121 36.6772C52.7051 38.1305 55.8601 37.6833 58.5643 35.0004C59.1277 34.4415 59.5784 33.4354 59.5784 32.6529C59.4658 30.0818 58.5643 28.8522 56.9869 28.1815C55.9728 27.7343 54.846 27.6225 53.8319 27.7343C53.0431 27.7343 52.1417 27.8461 51.691 27.9579Z" fill="white"/>
<path d="M84.0293 134.268C84.48 129.796 85.7195 123.983 86.2828 119.512C86.5082 117.276 87.2969 115.711 89.8885 115.264C92.4801 114.929 94.959 114.034 97.5506 113.699C108.818 111.91 120.086 110.345 131.354 108.557C135.523 107.886 139.692 106.992 143.861 106.097C145.551 105.762 146.903 105.986 147.805 107.551C148.143 108.11 148.481 108.557 148.819 109.116C150.622 112.469 150.396 112.693 147.692 115.376C142.284 119.847 136.199 125.213 130.002 129.684C127.523 131.473 125.044 133.262 122.903 135.385C118.509 139.969 112.762 146.229 111.973 145.893C110.396 145.334 108.03 143.434 105.889 141.645C103.748 139.969 101.382 138.739 98.7901 137.845C97.2126 137.286 95.0717 136.615 93.4942 136.056C92.5928 135.721 91.6914 135.497 90.6773 135.385C87.2969 134.938 84.0293 134.268 84.0293 134.268Z" fill="white"/>
</svg>
