<svg width="118" height="283" viewBox="0 0 118 283" fill="none" xmlns="http://www.w3.org/2000/svg">
<path d="M0.53038 278.742C2.43888 279.979 4.5263 280.097 6.61372 280.156C9.95359 280.215 13.2338 280.097 16.5737 279.92C25.3409 279.449 32.0206 279.802 40.6685 280.922C43.6505 281.334 47.8253 281.511 50.867 281.511C52.0002 281.511 54.2069 281.688 55.34 281.393C55.4593 276.09 56.1154 270.963 57.4275 266.131C58.1432 263.479 59.6938 261.358 61.6023 259.531C64.4651 256.82 67.5067 254.286 70.4888 251.694C71.0852 251.163 71.8008 250.692 72.5762 250.103C71.0852 248.335 69.117 248.158 67.2682 248.04C63.8686 247.804 61.0059 246.154 57.5467 245.035C58.4414 242.619 59.0378 240.262 60.1113 238.14C64.0476 230.421 64.8825 222.229 64.644 213.803C64.4651 207.497 63.6897 201.31 61.9005 195.24C61.5427 193.944 60.827 193.296 59.6938 193.001C56.7714 192.353 53.849 192.117 50.9266 192.765C50.032 192.942 49.1971 193.473 48.4217 194.003C46.215 195.417 44.1276 196.949 41.6824 198.599C40.3703 192.648 41.1456 186.696 38.9985 181.157C36.9111 175.794 34.8833 170.314 32.7959 164.833C38.8793 165.6 44.9626 166.66 50.211 170.078C54.2069 172.671 57.6064 170.844 61.1848 169.371C62.1391 168.958 62.1391 168.133 61.8409 167.191C61.0655 164.951 60.2902 162.771 59.6342 160.532C58.2028 155.405 56.7714 150.219 56.3539 144.857C55.9961 140.614 55.3997 140.201 51.4038 141.616C44.4258 144.091 37.2093 145.859 30.6489 149.276C30.2314 149.512 29.8139 149.571 29.0386 149.807C27.965 145.505 26.5933 141.38 25.9969 137.196C24.8637 129.005 22.5377 121.286 19.2575 113.743C17.1105 108.734 14.8441 103.784 12.6971 98.775C11.9217 96.8893 11.3253 94.9446 10.55 92.7643C8.82041 92.2339 4.94378 88.1679 3.45277 88.9929C3.45277 88.9929 2.97564 95.7696 2.79671 101.662C2.916 105.434 3.27385 107.673 3.21421 110.62C3.33349 114.096 3.33349 117.278 3.33349 118.162C3.2142 123.702 3.87025 129.005 4.40702 137.962C5.1227 149.453 5.71911 161.003 6.01731 172.494C6.49444 189.406 4.94379 206.201 4.10882 223.054C3.63169 232.601 3.03529 242.147 2.43888 251.694C1.84248 260.297 1.12679 268.901 0.53038 277.504C0.53038 277.917 0.53038 278.329 0.53038 278.742Z" fill="white"/>
<path d="M49.7325 50.218C50.5079 46.2109 52.1182 42.7342 54.0863 39.4342C54.4441 38.8449 55.2791 38.5503 55.8755 38.1378C56.7105 37.6074 57.6051 37.0771 58.619 36.4878C56.0544 33.011 51.82 33.3646 48.9572 31.4789C49.494 26.4111 50.0307 21.579 50.3886 16.6879C50.5675 14.5665 50.4482 12.504 50.2693 10.3826C50.0904 8.32012 51.1043 4.25407 52.1182 2.19159C52.1182 2.19159 51.4621 2.07373 50.2693 2.07373C49.5536 2.07373 48.8379 2.0148 48.1222 1.89695C39.8322 0.423744 33.6892 1.24874 24.7432 1.01303C22.6557 0.954098 17.7056 0.836241 15.6181 0.777313C12.159 0.659457 5.59854 0.305888 4.88285 0.777313C5.18105 4.07729 4.9425 5.84513 5.12142 7.73084C5.35998 11.6201 4.52501 31.8914 4.16717 35.8985C3.15327 47.6252 2.31831 76.3232 3.27256 81.2142C3.39184 81.7446 3.69004 84.691 3.69004 85.2214C3.69004 85.2214 4.70393 85.6339 6.25459 86.0464C9.17697 86.8124 12.159 87.4017 15.141 87.991C15.8567 88.1678 16.632 88.1678 17.7056 88.2267C19.0773 92.116 20.3894 96.1231 21.9401 100.012C24.0871 105.375 24.5046 111.15 26.1149 116.63C27.8445 122.523 30.1704 128.298 32.1982 134.132C32.735 135.605 33.6892 136.548 35.2399 136.784C37.7448 137.196 40.3093 137.667 42.8142 137.785C45.2595 137.903 45.4981 137.608 45.9752 135.192C46.7505 131.539 47.2276 127.767 48.2415 124.173C49.4343 119.753 51.1043 115.452 52.5357 111.15C52.5953 110.914 52.8339 110.737 53.1917 110.325C54.9809 112.505 56.7105 114.627 58.3804 116.689C59.454 117.985 61.0046 118.987 62.1974 120.225C62.8535 120.932 64.5234 122.876 65.2987 123.466C68.8772 126.059 70.6664 126.059 73.3502 129.241C74.3044 125.116 75.0201 116.335 74.2448 113.86C73.2906 110.973 73.4695 108.085 74.1255 105.257C75.378 99.7766 76.869 94.3552 78.2407 88.9338C79.6721 83.2178 80.9842 77.5018 81.2824 71.55C81.342 70.3125 81.521 69.075 81.6999 67.8965C81.9384 66.1286 81.342 64.9501 79.5528 64.3019C76.9883 63.3001 74.3641 62.2983 71.9188 61.0608C64.5234 57.4662 56.8298 54.9912 49.7325 50.218Z" fill="white"/>
<path d="M74.3052 132.245C70.2496 130.359 66.6115 128.591 63.6891 125.704C63.1524 125.174 62.556 124.702 62.1385 124.113C60.4685 121.815 58.3811 121.52 55.8762 122.522C54.922 122.875 53.9677 123.288 52.7749 123.818C53.1328 124.761 53.3117 125.586 53.6695 126.293C55.9955 130.949 57.5462 135.722 58.6793 140.848C60.5282 149.57 63.0927 158.114 65.4187 166.718C65.7169 167.779 66.0151 168.839 66.373 170.195C62.6752 170.843 60.1703 172.316 56.7708 173.082C55.0413 173.495 52.2382 173.613 50.4489 173.436C47.0494 173.082 43.471 171.904 40.3697 169.9C38.1033 168.486 36.6123 167.189 36.6123 167.189C36.6123 167.189 40.1908 178.504 41.3239 180.979C42.3378 183.041 44.962 193.118 44.962 193.118C44.962 193.118 56.1744 185.457 58.4408 186.636C63.6295 189.287 65.0609 191.291 68.1622 196.241C70.011 199.246 70.9653 202.428 71.0249 206.082C71.0846 212.682 70.3689 219.164 69.2953 225.646C68.5797 230.066 67.0886 233.896 64.7627 237.609C63.6891 239.317 63.8084 240.26 65.4784 240.732C69.7128 241.91 73.6491 244.326 78.2414 244.385C80.3885 244.385 82.0584 243.914 83.3109 242.028C87.9628 234.839 92.8534 227.826 97.386 220.578C101.859 213.389 105.915 205.964 110.268 198.716C111.223 197.125 113.489 196.3 113.489 196.3C113.966 194.591 113.012 190.466 113.012 188.58C113.191 178.563 113.37 168.545 113.787 158.527C114.085 151.514 114.741 144.502 115.397 137.49C115.755 133.365 116.531 129.299 116.889 125.233C117.366 119.988 117.783 114.743 117.962 109.558C118.081 105.609 117.902 101.72 117.664 97.772C117.545 96.0041 117.485 91.7613 116.889 90.1113C116.889 90.1113 114.861 90.5238 113.131 91.231C112.654 91.4078 111.58 91.8203 110.567 92.1149C110.268 92.2327 109.911 92.3506 109.612 92.4685C105.795 93.9417 103.708 95.1202 100.726 97.8309C94.8215 103.252 88.8574 108.615 83.5494 114.684C80.3288 118.338 77.7047 122.286 76.3329 127C75.9154 128.65 75.0805 130.359 74.3052 132.245Z" fill="white"/>
<path d="M60.5286 47.2711C66.1348 49.0979 70.1903 52.7514 74.6037 55.7567C77.705 57.8192 80.6871 60.1764 83.6691 62.4746C85.3987 63.8299 85.8162 65.4799 85.339 67.6602C84.3251 73.0227 83.7884 78.4441 82.6552 83.7476C81.6413 88.403 80.1503 92.9404 78.7786 97.5368C78.1225 99.6582 77.1086 110.501 77.7647 114.213C82.0588 112.151 86.5915 106.553 90.5278 102.84C91.482 101.956 92.3766 100.955 93.2116 99.9529C93.808 99.2457 94.2851 98.5386 94.643 98.0672C96.7304 95.9458 98.6985 94.2368 101.74 91.5851C103.35 90.1708 105.08 88.8744 106.929 87.7547C109.374 86.3405 114.563 86.0458 117.426 85.5155C117.426 85.5155 117.426 83.3941 117.426 81.9209C117.426 76.5584 117.187 71.2549 117.247 65.8924C117.247 52.8693 117.545 39.9051 117.545 26.882C117.545 19.2213 117.247 11.5017 117.068 3.84104C117.068 2.83926 117.366 1.83748 117.545 0.776775C116.65 -0.283932 115.398 0.0107091 114.145 0.128565C108.599 0.541063 102.993 1.2482 97.4461 1.2482C91.3031 1.2482 87.7843 1.36606 81.6413 1.01249C75.0809 0.599991 69.2957 0.423206 63.272 1.36606C61.1846 1.95534 55.8766 1.6607 53.9085 2.60355C53.9085 2.60355 52.7157 7.14102 52.8946 8.55529C53.6103 13.8588 53.3121 18.4552 52.7753 23.8177C52.656 24.9373 52.1789 28.473 52.1789 28.473C52.1789 28.473 58.3219 29.5926 60.5286 31.0659C61.9003 31.9498 62.3774 33.1283 62.1985 34.6605C61.781 38.0194 61.3635 41.3194 60.8864 44.6783C60.7671 45.5033 60.6478 46.3282 60.5286 47.2711Z" fill="white"/>
<path d="M112.476 274.381C112.834 268.311 113.311 262.242 113.609 256.172C114.205 244.092 114.444 232.012 114.205 219.931C114.086 215.394 113.251 206.26 113.609 201.723C113.609 201.723 112.178 201.369 110.15 203.844C109.017 205.199 108.182 207.91 108.003 208.558C106.214 214.51 102.814 219.519 99.2357 224.528C95.7169 229.419 92.6156 234.546 89.395 239.613C87.4268 242.737 85.6973 245.919 83.7291 249.042C83.3116 249.69 82.3574 250.279 81.6417 250.456C75.9759 251.517 71.5625 254.935 66.9701 257.999C64.346 259.708 62.6164 262.301 61.6025 265.129C60.2308 269.077 59.2169 273.202 58.3819 277.327C57.7855 280.333 57.5469 281.393 57.5469 281.393C61.185 281.983 68.7594 282.395 72.3974 282.69C79.3754 283.22 86.3533 282.984 93.3909 282.631C95.9554 282.513 98.52 282.454 101.144 282.395C104.782 282.336 108.778 282.042 111.76 281.747C111.82 281.57 112.416 276.385 112.476 274.381Z" fill="white"/>
</svg>
