<svg width="143" height="283" viewBox="0 0 143 283" fill="none" xmlns="http://www.w3.org/2000/svg">
<path d="M140.27 4.76739C136.982 2.20939 132.897 0.733611 128.613 0.340071C117.056 -0.643778 88.8601 -0.742151 65.7457 18.2461C35.5576 43.1375 17.4247 77.4739 8.05941 107.383C-1.70442 138.473 -2.20254 171.628 7.66092 202.718C15.0336 226.232 35.7568 249.451 54.2882 263.323C73.7162 277.786 104.303 283 118.749 283C132.897 283 141.565 280.245 141.665 276.9C141.764 273.555 121.738 271.883 102.709 259.092C91.052 251.222 53.0926 220.23 54.0889 159.527C54.886 109.941 79.993 53.468 102.011 31.0362C124.03 8.60442 138.576 7.81733 141.565 7.71894C143.358 7.71894 142.362 6.34155 140.27 4.76739Z" fill="white"/>
</svg>
