<svg width="120" height="283" viewBox="0 0 120 283" fill="none" xmlns="http://www.w3.org/2000/svg">
<path d="M66.3069 70.8444C56.5045 70.1569 46.7021 70.3533 36.9988 72.1211C32.3451 72.9068 27.7905 74.2818 23.0378 74.4783C22.1467 74.4783 21.5526 74.9693 21.4536 76.0497C21.1566 80.4693 20.9585 84.9871 20.5625 89.4068C19.8694 97.3621 19.7704 105.317 19.8694 113.174C19.9684 127.514 19.5723 141.853 20.0674 156.192C20.2654 162.576 20.6615 168.96 20.9585 175.344C21.3546 183.692 22.4437 191.942 23.1368 200.29C23.3349 202.058 24.028 202.156 25.6122 202.156C30.7609 202.058 35.6126 200.388 40.4643 199.308C44.9199 198.326 49.4745 198.326 53.9301 197.737C58.3858 197.147 62.8414 197.049 67.297 196.951C69.2773 196.853 71.2576 197.344 73.2378 197.638C74.525 197.835 74.9211 197.344 75.1191 196.362C77.3964 187.031 80.8619 178.094 83.3373 168.862C86.1096 158.549 88.486 148.139 90.8623 137.826C92.7436 129.478 94.3278 121.13 96.2091 112.782C97.3972 107.282 98.1893 101.683 99.3775 96.1835C99.9716 93.2371 100.17 89.996 102.645 87.7371C105.021 85.4782 108.091 84.3979 111.16 83.3175C111.655 83.1211 112.249 83.1211 112.744 83.5139C115.715 86.755 118.982 89.7014 119.873 94.2192C120.368 96.5764 119.279 98.6389 118.883 100.8C116.903 111.898 114.329 122.898 112.546 133.996C111.655 139.79 110.269 145.389 108.685 151.085C106.407 159.433 104.427 167.88 102.744 176.326C101.16 183.79 99.6745 191.156 98.1893 198.621C96.8031 205.79 95.0209 212.96 92.9416 219.933C89.9712 229.951 86.1096 239.772 82.3471 249.495C79.5747 256.468 76.5053 263.245 72.7428 269.727C68.9802 276.406 63.6335 281.218 55.4154 282.102C50.8607 282.593 46.4051 283.379 41.8505 282.79C36.5037 282.102 31.8501 280.04 28.3846 275.718C21.6516 267.37 17.394 257.647 13.7305 247.629C10.4631 238.692 8.18575 229.46 6.20547 220.129C3.82914 208.638 2.839 196.951 1.94788 185.263C1.05675 173.772 0.264641 162.281 0.0666136 150.692C-0.131414 143.326 0.264641 135.862 0.0666136 128.496C-0.131414 119.853 0.165627 111.112 0.264641 102.469C0.264641 94.9067 0.858724 87.4425 1.55182 79.88C1.94788 75.1658 2.1459 70.3533 2.839 65.639C3.63111 57.5855 5.11632 49.532 6.30449 41.3802C6.99758 37.0588 7.29462 32.7374 8.08673 28.416C9.37391 20.8535 11.4532 13.5857 16.8 7.69288C20.1664 4.05897 24.226 1.80005 29.0777 0.817916C38.88 -1.04815 48.2864 0.326847 57.3956 4.45183C63.1384 7.1036 68.3862 10.3447 72.4457 15.2553C76.8023 20.4607 79.3767 26.5499 80.4659 33.3267C81.258 38.3356 81.654 43.4427 81.555 48.5498C81.555 50.3177 82.3471 51.8891 82.9412 53.4605C84.6244 57.5855 85.2185 62.0051 86.7037 66.1301C87.6939 68.9783 86.6047 70.3533 83.2382 70.6479C79.9708 70.8444 76.5053 70.7461 73.0398 70.8444C70.8615 70.8444 68.5842 70.8444 66.3069 70.8444ZM36.8008 248.906C36.7017 249.102 36.6027 249.201 36.7017 249.299C38.0879 255.192 41.3554 259.808 46.108 263.442C46.9002 264.031 47.1972 263.54 47.5933 263.049C49.8706 260.495 51.2568 257.549 52.1479 254.308C52.5439 252.835 52.1479 252.442 50.6627 252.343C45.811 252.049 40.9593 251.754 36.8008 248.906ZM49.5735 239.477C50.2666 240.754 51.0587 240.361 51.3558 240.165C54.0292 238.594 54.1282 236.335 53.8311 233.486C53.5341 231.129 52.94 228.87 52.3459 226.513C52.2469 226.12 52.1479 225.629 51.6528 225.728C51.4548 225.728 51.1578 226.219 51.0587 226.415C50.4647 227.986 49.7716 229.46 49.4745 231.031C48.8804 234.469 47.5933 235.942 49.5735 239.477ZM33.2362 25.4696C29.8698 28.9071 20.3645 48.7463 29.2757 48.648C34.5234 48.5498 55.2173 49.0409 61.2572 48.648C69.8714 48.157 61.2572 26.4517 53.4351 22.3267C45.613 18.2018 36.6027 22.1303 33.2362 25.4696Z" fill="white"/>
</svg>
