<svg width="189" height="283" viewBox="0 0 189 283" fill="none" xmlns="http://www.w3.org/2000/svg">
<path d="M115.014 0C117.029 0 119.044 0.132479 121.059 0.264958C129.523 0.794873 137.986 1.45727 146.315 2.91453C150.48 3.70941 162.168 7.68377 171.034 12.453C175.333 14.8376 179.095 18.0171 182.185 21.9915C184.334 24.906 186.484 28.0855 187.424 30.6026C189.574 36.1667 189.305 55.7736 187.021 59.0856C183.528 64.3847 173.049 78.1625 171.975 80.2822C169.019 85.9788 166.198 91.8078 163.108 97.5044C158.809 105.453 155.585 113.932 152.629 122.41C148.196 135.261 145.375 148.509 142.285 161.624C139.598 173.547 137.18 185.603 135.434 197.791C134.359 205.475 133.822 213.158 133.284 220.842C132.613 230.513 132.344 240.317 130.597 249.855C129.926 253.829 128.314 264.163 126.701 268.402C126.298 269.329 125.627 269.992 124.821 270.522C121.462 272.244 111.521 277.278 107.356 278.735C99.2957 281.385 90.9665 283.24 82.3687 282.975C80.0848 282.842 77.801 282.71 75.5172 282.312C68.5314 281.253 61.9487 278.073 56.575 273.569C52.1417 269.727 48.1115 265.62 47.9771 264.295C47.5741 259.394 47.1711 254.359 46.768 249.458C46.2307 243.099 45.6933 236.872 45.1559 230.513C44.0812 217.663 43.2751 204.812 42.0661 191.962C41.1257 181.761 40.1853 171.56 38.8419 161.359C38.1701 156.193 36.6924 151.291 35.6176 146.257C33.7369 137.778 28.6319 109.428 27.9602 103.598C27.2884 97.6369 19.0936 78.4275 15.6007 75.1155C9.82399 69.6839 4.98769 63.4574 2.56953 55.7736C2.1665 54.7138 1.89782 53.5215 1.4948 52.4616C0.823085 50.077 0.688743 47.8249 1.22611 45.3078C1.62914 42.9231 2.56953 40.8035 3.77861 38.6838C5.6594 35.3719 8.07755 32.7223 13.4512 27.1582C17.4815 23.1838 26.4824 16.5599 31.8561 14.4402C47.1711 8.34617 57.381 5.0342 73.3677 2.64958C87.608 0 107.222 0 115.014 0ZM101.042 186.928C97.0119 198.188 89.8918 210.111 85.0555 221.107C92.713 220.047 97.818 220.445 95.1311 220.312C98.624 211.436 103.863 200.838 106.147 196.599C108.834 192.094 109.774 187.987 110.983 186.928C109.774 183.616 108.7 180.569 107.625 177.522C105.207 170.5 102.923 163.479 100.505 156.458C98.624 151.026 94.4594 134.334 94.4594 134.334C95.9372 131.816 97.1463 129.299 98.624 126.915C103.729 118.701 108.7 110.487 113.939 102.274C115.954 99.0942 118.372 96.1796 120.925 92.8677C119.581 92.2053 95.5342 93.9275 89.3544 93.9275C88.414 96.9745 87.4736 100.022 86.6676 102.936C83.7121 113.137 80.7565 123.338 77.6667 133.406C77.6667 133.406 83.5777 149.039 86.3989 156.458C88.5484 161.359 98.0867 182.026 101.042 186.928ZM115.417 47.9573C109.774 47.4274 104.401 48.2223 99.0271 48.7522C91.6382 49.5471 84.3838 51.0044 77.2636 53.124C75.5172 53.6539 74.5768 54.4488 74.7112 56.436C74.8455 59.218 74.8455 62.0001 74.5768 64.6497C74.4425 66.6369 73.9051 68.624 73.5021 70.4787C73.3677 71.0087 72.696 71.5386 72.1587 71.6711C68.9344 72.8634 65.7102 73.5258 62.3517 72.3335C60.4709 71.6711 58.5901 70.8762 56.7093 70.0813C57.1124 67.4317 57.5154 64.7822 57.9184 62.1326C53.0821 63.7223 51.2013 66.1069 51.067 70.7437C54.4255 71.6711 57.7841 72.9958 61.4113 73.6582C72.8304 75.9104 84.2494 75.3805 95.6685 74.5856C101.983 74.1882 108.297 73.2608 114.476 72.4659C125.627 71.0087 136.508 68.2266 146.987 63.8548C147.928 63.4574 148.868 62.6625 149.808 62.1326C147.121 57.3633 140.136 52.7266 135.165 52.1967C135.837 54.1838 136.374 56.0386 136.911 58.0257C137.852 60.9403 137.718 61.6027 135.031 62.9274C132.344 64.2522 129.388 65.3121 126.298 66.1069C123.343 66.9018 122.268 66.2394 120.79 63.5898C119.716 61.4702 118.775 59.3505 118.104 57.0984C117.163 54.1838 116.357 51.1368 115.417 47.9573ZM50.1266 29.4103C55.5003 32.1924 60.2022 34.4445 64.6355 36.9616C66.6506 38.0214 68.2627 38.2864 70.4122 37.624C83.5777 33.6496 97.1463 31.265 110.983 31.6624C113.267 31.6624 115.014 30.8676 116.76 29.5428C119.447 27.4231 122.134 25.4359 124.955 23.3163C126.701 21.9915 128.448 20.6667 130.597 19.077C129.523 18.812 129.12 18.547 128.582 18.547C124.149 18.4146 119.716 17.8846 115.417 18.1496C106.013 18.6795 96.6089 19.077 87.4736 20.4017C78.204 21.7265 68.9344 23.8462 59.6649 25.8334C56.575 26.4958 53.7538 28.0855 50.1266 29.4103ZM156.257 60.0129C159.884 58.1582 163.377 56.3035 167.004 54.5813C173.049 51.7992 176.811 46.8975 180.17 41.4659C182.05 38.4189 181.647 36.5642 179.229 33.7821C175.736 29.6753 171.169 27.1582 166.332 25.0385C165.392 24.6411 163.914 24.906 162.974 25.4359C158.272 27.8206 153.704 30.2052 149.137 32.7223C146.987 33.9146 145.106 35.2394 142.688 36.8291C147.121 39.4787 150.211 42.7907 152.092 46.8975C153.839 51.0044 154.779 55.2437 156.257 60.0129ZM41.9317 70.0813C40.7226 66.1069 39.5136 62.53 40.0509 58.5557C40.5883 54.4488 43.5438 52.0642 46.0963 49.5471C41.1257 45.9702 36.155 42.6582 31.1844 39.0813C27.1541 42.3932 23.3925 46.1026 21.1087 51.0044C19.7653 53.7864 19.8996 56.5685 22.1835 59.218C25.945 63.4574 30.5127 66.5044 35.6176 68.7565C37.4984 69.4189 39.3792 70.3463 41.9317 70.0813Z" fill="white"/>
</svg>
