<svg width="106" height="283" viewBox="0 0 106 283" fill="none" xmlns="http://www.w3.org/2000/svg">
<path d="M59.1439 28.6924C45.7441 28.4638 43.0873 37.3785 40.5459 42.0644C36.7339 49.0361 37.658 57.8365 36.965 65.7225C36.6184 69.6084 39.8528 77.3802 40.0839 77.9516C37.5425 79.0945 35.0012 80.1232 32.5754 81.2661C23.7962 85.4948 6.6999 79.666 6.35335 79.5517C2.07928 78.1802 0.577577 75.2087 0.231031 70.8656C0 69.6084 0 68.0084 0 66.0654C0 54.4078 2.65686 42.8644 7.39299 32.1211C8.77918 28.921 10.1654 26.178 11.205 24.5779C13.9774 20.8063 16.8653 17.149 20.0997 13.8346C22.41 11.4345 32.2288 4.34846 37.7736 2.40552C44.82 0.00541465 51.6354 0.233996 58.5663 0.00541453C63.187 -0.108876 70.9265 1.60548 74.9696 3.31984C83.6332 6.86285 87.6763 11.5488 94.6072 17.7205C99.4588 21.9492 102.231 27.3209 103.617 33.7212C105.004 40.2357 105.581 46.7503 105.004 53.2649C104.31 62.0652 96.2244 89.8379 94.7227 95.2095C93.1055 101.038 91.8348 107.096 90.4486 112.925C88.7159 119.782 86.8676 126.639 85.2504 133.611C83.8642 139.783 80.5143 159.212 80.1677 162.641C79.8212 166.298 80.2833 182.07 80.5143 185.271C80.9763 190.299 83.4022 204.7 83.8642 206.871C84.0953 207.9 79.4747 209.614 77.8574 210.3C71.1575 213.043 65.3818 214.072 58.3353 214.986C52.5595 215.672 44.0114 215.672 40.4304 215.672C35.4633 215.672 19.4066 215.1 18.7135 212.129C18.367 210.872 17.4428 198.985 17.7894 194.3C19.4066 174.413 22.5255 167.67 24.3738 162.641C26.1065 157.841 31.8823 144.24 33.9616 139.554C36.0408 134.868 42.0476 123.211 44.82 117.839C46.7838 113.953 58.1043 90.8665 61.4542 84.009C63.9956 78.7517 69.0783 59.3223 69.1938 57.0364C69.3093 55.2078 73.8144 29.9496 59.1439 28.6924Z" fill="white"/>
<path d="M68.9627 217.387C71.042 217.387 81.2073 217.73 88.4848 222.644C93.3364 225.959 95.8778 231.559 97.6105 237.045C98.4191 239.674 99.4588 244.588 98.9967 251.217C98.6502 256.931 96.6864 262.532 93.2209 267.218C92.7589 267.903 92.1813 268.475 91.7192 269.046C86.6366 274.418 83.4021 276.932 76.4712 279.447C72.7747 280.818 68.6161 281.847 63.3024 282.533C57.9887 283.218 52.5595 283.218 47.3613 282.075C42.3941 280.933 37.5425 279.218 33.4994 276.132C32.8063 275.561 31.9977 274.989 31.3046 274.418C17.9048 264.932 19.1755 249.274 19.7531 246.188C20.6772 241.274 22.7565 236.588 25.8754 232.588C29.2254 228.13 33.7305 224.473 38.9287 222.301C48.2854 218.644 59.2594 216.93 68.9627 217.387ZM54.7543 228.587C49.7871 238.988 52.3284 262.189 66.1903 265.732C73.1212 253.846 65.3817 232.13 54.7543 228.587Z" fill="white"/>
</svg>
