<svg width="129" height="283" viewBox="0 0 129 283" fill="none" xmlns="http://www.w3.org/2000/svg">
<path d="M63.6535 82.3276C73.1498 82.1309 83.4631 83.6059 93.0616 88.3258C98.1672 90.8824 102.864 94.1273 106.438 98.6506C109.195 102.289 109.91 106.615 111.033 110.844C114.097 121.758 115.322 132.968 117.466 144.08C119.917 156.666 121.347 169.449 123.593 182.035C125.533 192.95 127.677 203.767 128.29 214.878C128.801 223.039 128.188 231.103 126.963 239.166C125.737 247.721 124.104 256.177 122.266 264.535C120.632 272.008 115.935 277.023 108.276 279.187C100.107 281.448 91.632 282.038 83.2589 282.628C69.2696 283.71 55.3825 282.235 41.5974 280.662C33.3264 279.678 25.4638 276.827 17.9075 273.582C16.4779 272.992 15.0484 272.5 13.6188 271.91C9.02378 270.042 6.26677 266.6 4.42876 262.274C3.81609 260.799 3.10131 259.52 2.38653 258.144C0.140073 253.522 -0.268355 248.606 0.140091 243.591C0.854872 234.643 2.69287 225.793 4.63299 217.041C7.28789 205.045 10.4534 193.147 13.5167 181.249C17.7033 165.516 21.1751 149.586 26.1785 134.05C28.2208 127.658 29.2419 120.972 31.0799 114.482C33.02 107.304 35.4707 100.421 38.8404 93.734C39.7594 91.8657 40.2699 89.8991 40.8826 87.9325C41.5974 85.6709 43.1291 84.4909 45.4776 83.9009C50.8895 82.3276 56.7099 82.3276 63.6535 82.3276ZM64.0619 91.3741C64.0619 91.6691 64.9809 117.235 63.245 121.857C62.1218 131.297 60.9986 155.978 59.8754 166.597C58.0373 188.23 58.1394 200.522 58.5479 217.828C58.8542 230.513 59.7732 243.197 61.407 255.784C61.9176 259.914 62.2239 264.142 63.6535 268.173C64.3682 267.878 64.164 267.289 64.164 266.797C64.2661 262.765 64.7767 258.734 65.4915 254.702C67.3295 243.296 69.2696 231.889 69.4738 220.188C69.6781 211.043 69.3717 201.8 69.2696 192.655C69.0654 177.709 68.3506 162.861 67.3295 147.914C67.1253 144.178 65.2873 95.0123 64.0619 91.3741ZM96.6355 269.943C118.385 221.27 107.97 180.855 96.6355 154.503C96.6355 160.698 99.1883 195.212 99.2904 201.505C99.4947 212.026 99.801 222.253 99.5967 233.856C98.882 237.887 98.2693 244.672 98.1672 250.081C97.963 255.095 97.3503 265.125 96.6355 269.943ZM39.1467 256.669C36.5939 243.886 35.777 179.872 36.3897 166.892C33.2242 179.38 14.4357 232.578 39.1467 256.669Z" fill="white"/>
<path d="M123.899 50.8625C124.103 54.7957 123.388 58.434 119.815 60.6956C116.853 62.6622 113.586 63.9405 110.012 64.7271C102.251 66.6938 94.2866 66.7921 86.4241 66.8904C77.1319 66.9888 67.9418 67.4804 58.7518 68.0704C52.6251 68.4637 46.3963 68.5621 40.2696 67.7754C34.4492 66.9888 29.2416 64.7271 24.6465 61.1872C21.6853 58.8273 21.0726 56.664 22.1959 53.0257C23.1149 49.8791 25.1571 47.2242 25.974 44.0776C28.5268 34.2445 33.7345 25.8863 41.1886 18.7082C45.0688 14.9716 48.2343 10.7433 52.7272 7.59675C58.5476 3.56517 64.6743 0.418572 72.0263 0.0252476C74.9875 -0.171415 77.6425 0.811897 80.1952 1.89354C93.2655 7.00676 105.11 14.0866 113.994 24.7064C120.223 32.1795 123.593 41.1277 123.899 50.8625ZM81.5227 23.8214C85.1987 23.8214 88.2621 23.1331 90.4064 20.5765C92.2444 18.4132 91.6317 16.0532 88.9768 14.9716C88.16 14.6766 87.3431 14.4799 86.5262 14.0866C82.6459 12.6116 76.7235 15.4632 75.7023 19.2982C75.1918 21.2648 76.0087 22.7397 78.0509 23.3297C79.2762 23.7231 80.5016 23.9197 81.5227 23.8214ZM96.6352 40.7343C98.5753 40.931 100.413 40.5377 102.149 39.9477C103.17 39.5544 104.498 37.8827 104.191 34.6378C103.885 32.4745 102.966 30.4096 99.6986 28.8363C96.1246 27.558 92.3465 28.3446 90.3043 31.0979C88.6705 33.2612 88.0578 35.5228 89.2832 38.1777C90.4064 40.5377 92.6529 40.341 94.593 40.8327C95.3078 40.8327 96.0225 40.7343 96.6352 40.7343ZM61.1004 22.7397C64.5722 23.2314 66.7165 21.2648 68.5545 18.9048C69.3714 17.8232 69.3714 16.7415 68.6566 15.5616C66.5123 12.12 62.7342 10.94 58.956 12.71C56.4033 13.8899 55.0758 16.8399 55.6885 19.8881C56.0969 22.0514 57.2201 22.6414 60.6919 22.8381C60.794 22.7397 60.9982 22.7397 61.1004 22.7397ZM76.2129 47.0275C78.0509 46.9292 79.5826 46.5359 81.3185 45.2576C82.0333 44.7659 82.1354 42.406 81.6248 41.4227C78.8678 36.3094 73.8643 35.7195 68.3503 37.9811C66.8186 38.5711 65.7975 40.2427 65.6954 41.521C65.4912 42.6026 65.6954 44.5693 66.8186 45.5526C68.1461 46.5359 70.1883 47.0275 70.9031 47.0275C72.1284 47.0275 74.3749 47.1259 76.2129 47.0275ZM49.5618 39.0627C52.1146 38.8661 54.6673 38.9644 57.0159 37.5877C58.1391 36.8994 59.3645 36.0145 58.4455 34.5395C56.7096 31.8845 54.4631 29.7213 51.0934 29.0329C49.766 28.7379 48.7449 29.1313 47.6216 30.1146C45.8857 31.6879 45.171 33.5562 44.9667 35.7195C44.6604 38.2761 45.2731 39.0627 47.928 39.161C48.3364 39.0627 48.9491 39.0627 49.5618 39.0627Z" fill="white"/>
</svg>
