<svg width="180" height="283" viewBox="0 0 180 283" fill="none" xmlns="http://www.w3.org/2000/svg">
<path d="M142.567 106.855C142.567 110.568 143.28 126.708 143.637 131.421C144.469 143.848 145.42 156.417 146.252 168.843C146.609 173.842 153.622 257.541 154.336 264.968C155.049 271.681 154.336 272.823 148.867 274.68C138.882 277.965 128.658 279.822 118.316 280.965C111.54 281.679 104.645 282.536 97.8687 282.964C91.687 283.393 38.0731 279.822 34.8634 278.965C32.6047 278.394 32.367 277.965 32.367 275.109C32.367 269.824 33.0802 217.834 32.7236 197.123C32.4859 181.126 32.6047 165.272 32.8425 149.275C32.9614 138.706 34.0313 115.996 34.0313 114.425C33.318 115.567 32.7236 116.281 32.4859 116.996C30.9404 119.138 28.2062 121.995 24.6399 124.137C21.3113 126.28 16.9129 128.708 16.6751 126.851C16.1996 122.566 10.2557 93.9999 9.06692 86.287C8.11589 80.1453 0.151079 54.4358 0.507713 50.7222C3.00415 44.2949 10.0179 32.44 13.9409 27.5837C17.2695 23.156 22.7379 16.3001 32.2481 14.0148C34.8634 13.3007 39.143 12.0152 48.4155 10.7297C48.891 10.7297 49.3665 10.5869 49.842 10.4441C53.4084 9.72993 57.0936 8.58728 60.0655 8.15879C66.6038 5.87351 72.9043 4.15954 79.6804 2.87407C90.8549 0.588782 102.029 -0.12537 113.442 0.0174607C113.679 0.0174607 113.917 0.0174607 114.155 0.0174607C121.288 0.0174607 128.301 1.44576 134.959 4.15954C138.525 5.58785 145.182 11.7296 147.203 13.4435C152.79 18.0141 164.559 33.1541 166.223 36.582C168.244 40.7241 175.02 51.4364 176.328 54.4358C177.398 56.864 179.894 62.0059 179.894 62.0059C175.258 70.0044 166.818 82.1449 165.986 91.5717C165.51 96.8565 164.797 113.282 164.44 118.567C164.202 121.995 143.874 107.854 142.567 106.855ZM61.8487 16.8714C64.1074 19.4424 65.7716 21.2992 67.4359 23.2988C73.4987 30.1547 80.5125 36.582 91.0926 35.0109C105.12 31.4401 110.945 8.58728 110.826 6.01634C93.9457 5.01652 78.2538 10.7297 61.8487 16.8714ZM80.3936 47.1515C78.0161 48.0085 76.2329 50.4366 75.9951 53.436C75.6385 56.864 75.4007 60.1491 75.163 63.4342C75.163 63.7198 75.163 64.0055 75.163 64.2911C75.2819 69.1474 79.4426 72.5753 83.3656 71.2898C86.9319 70.1472 90.0227 68.2904 92.9947 66.8621C97.3932 64.7196 100.008 63.1485 104.407 60.8632C106.666 59.7206 107.498 56.4355 107.617 55.2928C107.973 52.7219 107.498 43.0094 105.477 40.4385C104.407 39.153 103.337 38.7245 101.911 39.4386C100.484 40.1528 87.1697 44.8662 80.3936 47.1515Z" fill="white"/>
</svg>
