<svg width="174" height="283" viewBox="0 0 174 283" fill="none" xmlns="http://www.w3.org/2000/svg">
<path d="M25.9552 108.784C35.2088 106.64 44.5752 105.512 54.0545 104.497C54.1673 104.045 54.2802 103.707 54.2802 103.368C54.6187 95.1324 55.0701 86.7836 55.4087 78.5476C55.5215 74.2604 55.5215 69.8603 55.6344 65.5731C55.7472 61.85 55.9729 58.014 56.0858 54.4037C63.7595 51.2447 70.9818 48.1986 78.2041 45.1524C78.6555 38.7215 78.994 32.742 79.4454 26.7624C79.784 22.7009 80.2354 18.6393 80.5739 14.6905C80.6868 13.5623 81.1382 12.8854 82.1538 12.4341C90.3917 8.71097 98.7425 4.87504 106.98 1.0391C110.592 -0.653226 113.977 -0.0891177 117.363 1.37756C127.406 5.66479 137.337 10.0648 147.493 14.2392C152.797 16.4957 158.214 18.6393 163.518 20.7829C164.42 21.1214 165.323 21.5726 166.339 21.7983C169.499 22.4752 170.966 24.7317 171.53 27.665C171.756 29.3573 171.756 31.0497 171.868 32.742C171.981 41.8805 171.981 51.0191 172.32 60.0448C172.546 66.1372 173.448 72.2296 173.9 78.322C174.125 80.9168 173.9 83.5117 173.9 86.3323C166.226 90.0554 158.439 93.7785 150.766 97.6145C147.606 99.194 144.559 100.886 141.399 102.466C140.384 103.03 139.819 103.707 139.819 105.061C139.368 115.666 138.804 126.271 138.465 136.989C138.24 142.969 138.578 148.835 138.691 154.815C138.691 155.718 138.691 156.62 138.691 157.297C136.321 160.005 133.161 159.892 130.34 160.23C121.312 161.584 112.284 162.6 103.256 163.841C102.805 163.954 102.354 164.066 101.789 164.179C101.789 164.969 101.789 165.646 101.902 166.323C102.805 173.318 101.789 180.313 101.338 187.421C100.774 196.672 99.9839 205.923 99.3068 215.175C99.1939 216.641 98.7425 217.657 97.3884 217.882C95.3571 218.334 93.3258 218.785 91.2945 219.011C89.1504 219.236 87.0063 219.123 84.8622 219.349C80.4611 219.8 76.1728 220.477 71.6589 221.154C71.6589 221.605 71.546 221.944 71.6589 222.282C73.2387 230.18 72.5617 238.077 72.4488 245.975C72.336 253.872 72.2231 261.657 72.336 269.555C72.336 271.247 71.8846 272.15 70.4175 273.052C64.098 276.888 57.3271 279.483 50.669 282.416C48.2992 283.432 46.2679 283.093 44.1238 281.627C38.4814 277.903 33.1775 273.729 27.8736 269.442C20.5384 263.349 12.9776 257.483 5.41673 251.503C5.19104 251.39 4.96534 251.165 4.73964 251.052C1.57988 248.796 -0.225697 246.201 0.112849 241.801C0.677092 235.257 0.451394 228.6 0.338546 222.057C0.225697 211.339 0 200.621 0 189.903C0 183.81 0.451394 177.605 0.677092 171.513C0.78994 169.708 1.35418 168.354 3.15976 167.338C9.25359 164.179 15.1217 160.682 21.2155 157.523C22.9083 156.62 23.4725 155.83 23.5854 153.912C23.8111 144.661 24.0368 135.523 24.4881 126.384C24.7138 122.097 25.5038 117.81 25.9552 113.522C25.8423 111.943 25.8423 110.589 25.9552 108.784ZM54.5059 276.662C54.6187 276.211 54.7316 275.986 54.7316 275.76C54.393 268.426 54.2802 261.206 53.6031 253.872C52.926 244.847 51.7975 235.934 51.0076 226.908C50.669 222.846 50.7819 218.785 50.7819 214.723C50.7819 213.257 51.3461 212.354 52.926 212.241C54.2802 212.128 55.5215 211.564 56.8757 211.339C63.9852 209.759 71.0946 208.292 78.3169 206.826C79.8968 206.487 81.5895 206.262 83.0566 205.923C82.8309 199.605 82.6052 193.626 82.4923 187.759C82.1538 176.026 82.0409 164.292 83.508 152.671C83.9594 149.512 84.1851 149.061 87.3448 148.384C89.9403 147.933 92.5359 147.707 95.1314 147.256C102.241 146.241 109.237 145.225 116.347 144.323C116.911 144.21 117.475 144.097 118.152 143.984C118.152 142.969 118.152 142.066 118.152 141.164C117.927 131.461 118.04 121.871 119.281 112.281C120.071 106.302 120.748 100.322 121.425 94.3426C121.538 93.2144 122.102 92.5375 123.118 92.199C126.052 91.1836 128.873 90.0554 131.807 89.1528C137.224 87.5733 141.964 84.5271 146.816 82.4963C147.042 76.7424 147.155 71.2142 147.267 65.6859C147.267 64.1064 147.155 62.6397 147.042 61.0602C146.59 53.7268 145.8 46.2806 146.703 38.9472C146.816 37.7061 146.929 36.4651 147.155 34.9984C145.8 35.4497 144.898 35.7882 144.221 36.0138C143.995 43.3472 143.543 50.455 143.431 57.5628C143.318 64.7833 143.882 72.0039 143.092 78.9989C133.049 82.3835 123.344 85.6554 113.526 88.9272C113.526 89.6041 113.413 89.9426 113.413 90.3939C113.413 100.661 113.526 110.927 113.413 121.194C113.413 126.158 113.074 131.122 112.849 136.087C112.736 138.682 112.397 138.907 109.802 139.246C108.899 139.358 107.996 139.358 107.093 139.584C101.902 140.487 96.8241 141.502 91.6331 142.405C87.3448 143.194 83.1694 143.984 78.8812 144.774C78.6555 147.82 78.5426 150.753 78.3169 153.574C77.527 166.661 76.7371 179.861 75.8343 192.949C75.7214 194.754 75.27 196.559 75.27 198.251C75.1572 199.944 74.3672 200.621 72.9002 201.072C66.4678 203.103 60.0355 205.246 53.6031 207.277C50.7819 208.18 47.9607 209.195 45.2523 210.098C45.7037 214.836 46.2679 219.349 46.6065 223.862C46.945 228.488 46.945 233 47.2836 237.626C47.5093 242.139 47.9607 246.652 48.2992 251.052C48.7506 255.678 49.4277 260.19 49.8791 264.703C50.3305 269.103 50.5562 273.616 50.8947 278.468C52.2489 277.903 53.3774 277.227 54.5059 276.662ZM64.7751 57.3371C68.4991 59.3679 71.8846 60.9474 75.1572 62.9782C85.5392 69.1834 95.8085 75.5014 106.078 81.9322C107.545 82.8348 108.673 82.9476 110.366 82.3835C116.46 80.1271 122.666 78.0963 128.76 75.9527C129.325 75.7271 129.776 75.5014 130.566 75.1629C128.535 74.0347 126.842 73.1321 125.149 72.1168C111.607 64.4449 97.9526 56.8858 83.7337 50.3422C82.718 49.8909 81.9281 49.8909 80.9125 50.3422C76.1728 52.4858 71.3203 54.5166 66.4678 56.5474C65.9036 56.773 65.4522 56.9986 64.7751 57.3371ZM45.8165 203.328C51.7975 201.072 57.4399 198.928 63.5338 196.559C49.6534 185.728 36.7886 174.559 25.9552 161.472C20.0871 164.518 14.6703 167.338 8.91504 170.272C22.2312 180.313 34.0803 191.595 45.8165 203.328ZM35.5473 113.071C37.8043 114.199 39.6099 114.989 41.3026 116.004C46.6065 118.938 52.0232 121.984 57.3271 125.03C63.5338 128.528 69.6276 132.251 75.7214 135.748C76.7371 136.312 77.8655 136.989 78.8812 136.876C84.5236 136.538 90.166 135.974 95.8085 135.297C97.1627 135.184 98.6297 135.184 99.871 134.169C99.4196 133.83 99.1939 133.492 98.9682 133.379C86.3292 125.707 73.803 117.922 61.1639 110.25C59.9226 109.461 58.7941 109.461 57.5528 109.686C54.8444 110.138 52.0232 110.702 49.3148 111.153C45.0266 111.717 40.6255 112.281 35.5473 113.071ZM158.778 25.1829C151.894 22.4752 145.575 19.9931 139.255 17.5111C131.017 14.2392 122.779 11.193 114.654 7.8084C110.366 6.00325 110.366 5.77761 106.078 7.69558C102.692 9.16226 99.4196 10.8546 95.5828 12.6597C98.9682 13.9008 101.677 14.9162 104.385 15.9316C111.382 18.7521 118.378 21.6855 125.488 24.2804C130.002 25.9727 134.628 26.9881 139.029 28.9061C142.302 30.2599 145.236 30.5984 148.396 29.3573C150.766 28.4548 153.136 27.5522 155.505 26.6496C156.521 26.3112 157.311 25.8599 158.778 25.1829Z" fill="white"/>
</svg>
