<svg width="144" height="283" viewBox="0 0 144 283" fill="none" xmlns="http://www.w3.org/2000/svg">
<path d="M88.1164 40.4209C88.1164 39.4377 87.1302 30.9813 87.2288 29.998C87.3274 28.9164 86.5385 24.4916 84.2705 23.4099C81.5093 22.1317 70.3661 25.3765 63.5619 26.1632C58.0396 26.8515 49.8548 26.4582 46.6992 28.2281C44.4311 29.5064 44.4311 39.0443 44.8255 42.9775C45.22 47.1074 45.3186 53.8921 45.3186 56.1537C45.3186 58.6119 43.938 65.8883 47.9811 66.8716C50.3478 67.3632 65.1397 68.2482 72.9301 68.2482C80.4246 68.2482 88.1164 69.1332 89.497 67.1666C90.5817 65.6917 89.6942 55.957 89.3983 53.1055C89.0039 49.4673 88.215 43.3708 88.1164 40.4209ZM142.353 150.353C142.846 163.333 147.087 243.865 135.352 254.583C126.575 262.646 115.826 259.499 113.263 261.269C111.487 262.449 113.164 265.694 112.474 273.364C111.783 280.542 109.022 283 95.8081 283C82.4955 283 83.4816 273.462 83.9746 270.315C84.3691 267.464 87.6233 261.957 84.8622 261.662C81.7066 261.367 58.0396 262.154 57.1521 263.629C55.8701 265.891 59.0258 267.169 57.2507 275.822C55.4757 284.377 46.0089 282.902 39.4019 282.902C31.6115 282.902 30.0337 277.494 31.6115 272.38C33.0907 267.661 36.1477 262.547 31.3157 261.662C23.6239 260.188 15.6363 256.943 12.678 251.535C8.53624 243.963 4.49313 215.939 1.8306 176.312C-1.22638 130.982 3.60561 88.4058 10.5085 76.9012C14.6502 70.0182 30.6295 66.7182 30.6295 66.7182C33.0948 65.0466 32.9921 61.6601 32.5977 54.7771C32.3018 49.6639 32.5976 47.2057 32.4004 40.6176C31.7101 24.6882 29.9351 17.4118 30.9212 11.5121C31.8087 5.71061 48.6714 3.54735 66.5202 1.38409C82.8899 -0.582497 94.3289 -1.66412 98.2734 6.79222C100.64 11.9054 98.7665 33.5379 98.6679 43.6658C98.5693 53.7938 97.2873 66.9699 101.035 67.3632C107.346 68.0516 125.293 73.558 132.59 85.2592C137.916 93.8139 141.564 128.721 142.353 150.353ZM84.6649 14.2653C85.158 11.6104 87.2289 6.89055 81.5093 7.77552C76.3815 8.56215 51.0382 11.6104 46.6006 14.0686C45.0228 14.9536 45.3186 17.5102 45.22 19.2801C45.22 20.3617 45.5159 22.3283 47.1923 22.3283C51.7284 22.23 68.0981 18.9851 71.7467 18.3951C75.1982 17.8052 84.2705 16.7235 84.6649 14.2653Z" fill="white"/>
</svg>
