<svg width="158" height="283" viewBox="0 0 158 283" fill="none" xmlns="http://www.w3.org/2000/svg">
<path d="M19.8473 72.7114C18.1049 65.5263 16.3626 58.6889 14.6202 51.7356C12.7616 43.9711 10.9031 36.2066 9.04452 28.558C8.2314 25.4291 8.57988 24.8496 11.4839 23.8066C13.6909 22.9954 16.0141 22.0683 18.2211 21.1412C23.3321 18.9393 28.6754 18.1281 34.0188 16.8533C43.4277 14.7674 52.9527 12.9131 62.3616 10.8272C69.0989 9.20473 75.7199 7.5823 82.2249 5.38042C89.3106 2.94677 98.7195 0.165461 104.179 0.0495729C107.083 -0.529867 108.012 4.10565 108.477 6.88697C109.755 15.2309 111.497 23.459 113.936 31.5711C117.77 43.9711 121.603 56.3712 125.204 68.7712C127.295 76.0721 142.628 142.36 144.951 152.442C146.461 158.932 155.173 201.115 156.218 207.605C156.799 210.966 157.031 214.327 157.496 217.803C156.335 219.194 140.305 222.671 138.911 223.018C139.84 225.915 140.653 228.581 141.35 231.13C142.395 234.607 143.325 238.084 144.37 241.56C144.951 243.646 145.764 245.732 146.345 247.934C147.623 251.758 148.9 255.699 149.946 259.523C150.643 261.841 150.178 262.536 147.855 263.115C145.996 263.579 144.138 263.695 142.395 264.043C128.572 266.592 91.8661 276.558 87.1036 277.717C82.9218 278.76 68.4019 283.628 65.0333 282.932C64.3363 282.816 63.5232 281.889 63.1747 281.078C62.0132 278.181 60.9677 275.168 59.9223 272.271C57.0183 264.043 54.1143 255.814 51.3265 247.586C48.3064 238.663 45.5185 229.624 42.4984 220.7C39.2459 211.082 35.8773 201.463 32.2764 191.96C26.4684 176.779 6.83749 107.246 5.0951 100.756C4.28198 96.7002 2.77191 92.76 1.49416 88.7039C1.14568 87.6609 0.797205 86.6179 0.564887 85.4591C0.332568 84.3002 0.681046 83.6049 1.72648 82.6778C6.60517 78.3899 19.2665 73.059 19.8473 72.7114ZM96.5125 6.19164C94.4216 6.5393 92.6792 6.65519 91.053 7.23463C80.3663 11.1748 69.3312 13.3767 58.1799 15.6945C48.1902 17.7804 38.2005 19.7505 28.2108 21.8365C25.6553 22.416 23.216 23.5748 20.7766 24.9655C21.822 28.6739 22.7513 32.0347 23.6806 35.5113C48.3064 28.3263 73.1644 24.0384 98.0225 18.3599C97.4417 14.1879 96.9771 10.3636 96.5125 6.19164ZM137.633 187.325C116.956 193.119 96.5125 198.913 75.9523 204.708C76.7654 207.257 77.5785 209.691 78.5078 212.356C98.2549 204.476 118.234 197.986 138.794 193.003C138.33 191.033 137.981 189.295 137.633 187.325ZM69.4473 235.65C67.9373 231.71 66.4272 227.885 65.0333 223.945C62.8263 217.456 60.7354 210.966 58.4122 204.476C55.6244 196.48 52.8366 188.368 49.8164 180.487C44.9377 167.971 41.6853 154.992 38.8975 141.897C38.3167 138.999 37.5035 135.986 36.8066 132.857C35.645 133.321 34.8319 133.553 33.9026 133.9C34.2511 134.943 34.4834 135.754 34.7157 136.45C35.7612 140.042 36.9227 143.519 37.9682 147.112C39.3621 152.326 40.6398 157.541 42.0338 162.756C42.8469 165.769 43.66 168.898 44.3569 171.912C47.0286 184.196 50.7457 196.132 56.3214 207.373C59.1092 213.168 61.3162 219.078 63.2909 225.22C64.3363 228.581 65.2656 233.1 66.4272 236.461C66.3111 237.041 67.8211 236.693 69.4473 235.65ZM105.689 46.7525C105.921 45.7095 106.038 44.5506 106.038 43.5076C106.154 40.7263 104.76 38.0609 102.437 36.6702C100.694 35.5113 98.7195 35.0478 96.7448 35.1637C94.7701 35.0478 92.563 35.6272 90.9368 36.4384C90.0075 36.902 89.0783 37.5973 88.4975 38.5244C86.7551 40.9581 86.4066 41.8852 86.8712 45.4777C86.8712 45.5936 86.8712 45.8254 86.9874 46.0571C87.3359 49.6497 90.1237 52.6628 93.7246 53.2422C96.2801 53.5899 98.9518 53.2422 101.043 52.5469C103.366 51.5039 105.224 49.4179 105.689 46.7525ZM72.9321 57.8777C74.4422 58.1095 75.9523 58.2254 77.3462 57.8777C77.6947 57.7618 78.1593 57.53 78.6239 57.2983C80.134 56.2553 81.2956 54.6328 81.7602 52.7786C83.5026 46.9842 81.5279 42.3487 75.6038 40.6104C72.4675 39.6833 68.7504 39.9151 66.6595 44.087C65.1495 47.3319 65.1495 50.5768 66.0787 53.8216C66.5434 55.56 67.8211 56.7188 69.5635 57.1824C70.8413 57.4142 71.8867 57.6459 72.9321 57.8777ZM128.456 227.538C127.759 227.77 127.295 227.885 126.946 228.001C117.421 231.71 112.078 233.1 102.553 236.693C99.7649 237.736 92.9115 240.17 89.0783 241.56C84.0834 243.762 80.0178 244.457 74.6745 246.428C73.8614 246.543 72.3513 243.646 71.5382 241.676C68.8666 243.067 66.3111 244.342 63.6394 245.732C64.4525 247.934 65.1495 250.136 65.8464 252.106C76.6492 248.514 86.9874 244.689 97.5579 241.444C108.128 238.2 118.815 235.65 129.618 232.753C129.386 231.13 128.921 229.392 128.456 227.538ZM25.3068 49.9973C23.0998 51.9674 21.9382 54.8646 21.7059 57.9936C21.4736 61.1226 22.6352 64.3674 26.2361 65.2945C27.5138 65.6422 28.7916 66.1058 30.0693 65.9899C31.3471 65.9899 32.741 65.6422 33.6703 64.9469C36.2258 62.9768 37.852 60.3114 38.6651 57.1824C39.4782 54.4011 38.4328 51.2721 36.1096 49.6497C33.0895 47.4478 28.6754 46.8683 25.3068 49.9973ZM61.0839 56.6029C63.0586 51.8515 59.5738 46.4048 53.6497 45.7095C52.0235 45.5936 50.7457 46.0571 49.7003 47.3319C47.9579 49.4179 46.564 51.7356 46.4478 54.517C46.3316 56.4871 46.2155 58.9207 47.8417 60.1955C58.4122 66.917 60.8516 57.0665 61.0839 56.6029ZM25.3068 93.803C24.0291 88.8198 23.0998 83.8366 21.5897 78.9693C16.711 80.9394 12.1808 82.9095 7.6506 84.7637C10.0899 89.1675 12.4131 93.2236 14.7363 97.3955C18.1049 96.2367 21.5897 95.0778 25.3068 93.803ZM30.8825 110.607C28.4431 111.418 26.7007 112.577 25.7715 114.663C24.726 117.097 23.3321 121.153 25.7715 124.166C28.327 126.947 31.4633 127.295 35.1804 126.136C33.9026 121.037 32.3925 115.938 30.8825 110.607Z" fill="white"/>
</svg>
