<svg width="146" height="283" viewBox="0 0 146 283" fill="none" xmlns="http://www.w3.org/2000/svg">
<path d="M70.8005 282.85C64.8033 282.85 57.0365 281.569 49.1713 280.977C45.4354 280.681 41.6011 280.78 37.8652 280.484C29.8034 279.794 22.2332 277.724 14.7613 274.766C9.94388 271.808 5.02818 265.597 3.84841 258.598C3.75009 257.809 3.65175 257.119 3.45512 256.33C0.898949 242.725 0.898973 234.838 0.898973 230.303C0.702344 220.247 7.09273 209.304 8.46914 199.347C8.66576 197.08 8.76408 194.023 8.96071 189.094C9.15734 184.165 8.37085 179.235 6.89613 174.602C6.40456 173.123 6.10959 171.546 6.01127 169.081C5.91296 164.349 6.79784 159.518 8.27255 155.081C9.64896 151.138 10.8287 147.195 11.9101 140.491C12.8933 134.378 14.663 131.223 11.0253 125.998C8.27254 122.055 6.30625 117.816 6.6012 112.886C6.6012 112.196 6.69949 111.506 6.69949 110.816C6.69949 109.731 6.60116 108.253 6.50285 106.774C6.30622 100.76 7.09277 94.6477 9.05906 88.9296C10.3371 85.2819 12.0085 82.1271 14.368 77.9865C18.2023 71.5783 22.6264 65.4659 25.6742 58.6634C26.6573 56.5931 27.0506 54.3256 27.3455 52.0581C27.5421 50.5793 28.7219 49.2977 30.1967 49.1005C35.9972 48.1146 41.5028 48.1146 47.0084 51.1708C52.6123 54.227 58.9044 55.7058 64.9999 52.3539C69.0308 50.0864 73.0617 50.4807 77.1909 51.4666C78.764 51.8609 80.337 52.4524 81.91 53.044C84.5645 53.9313 85.9409 55.5086 86.1375 58.6634C86.3342 61.8182 87.9072 64.5786 91.1516 65.8603C93.9044 66.9447 96.1656 68.9165 98.6235 70.5924C102.949 73.5501 107.472 76.1133 111.601 79.3667C114.255 81.3384 117.598 82.3243 120.548 84.0003C126.938 87.648 132.05 92.2816 135.786 98.7883C140.899 107.661 143.357 117.126 144.93 126.984C145.716 132.308 144.635 137.434 143.455 142.561C141.784 149.561 140.014 156.462 138.146 163.363C135.688 172.531 132.149 181.306 127.725 189.784C125.758 193.53 123.89 197.277 123.005 201.417C122.121 205.361 123.497 209.009 124.873 212.656C127.43 219.163 131.362 224.881 134.41 231.092C137.654 237.796 138.932 244.894 137.851 252.19C136.671 260.077 132.149 265.992 125.463 270.33C118.286 275.062 110.323 277.428 102.163 279.4C92.4297 281.766 82.6966 283.54 70.8005 282.85ZM102.556 258.795C103.539 257.415 104.916 253.668 105.211 252.485C105.899 249.035 105.8 245.781 104.621 241.049C103.932 238.19 102.556 235.528 101.573 232.768C100.393 229.515 99.1151 225.867 97.837 222.219C93.6095 210.29 91.6432 197.671 92.1348 184.953C92.4297 177.461 92.528 171.348 92.233 170.264C91.0533 173.123 82.5982 191.164 82.6965 207.924C82.3033 216.896 87.8089 228.529 91.8398 236.613C94.2977 241.542 96.7555 246.57 99.2134 251.5C100.295 253.866 101.376 256.133 102.556 258.795ZM46.5168 134.477C52.7106 115.45 56.4466 96.5208 51.4326 76.902C51.1376 77.9865 51.1376 79.0709 51.0393 80.1554C50.2528 88.3381 48.3848 96.2251 46.5168 104.211C44.6489 112.492 43.764 120.773 44.5505 129.153C44.7472 130.928 44.9438 132.702 46.5168 134.477ZM58.5112 267.569C58.4129 266.583 57.9213 266.09 57.5281 265.499C53.3005 259.189 51.2359 252.19 49.9578 244.796C48.8764 238.782 49.5646 232.768 49.368 226.656C49.2697 223.994 51.4326 205.361 51.4326 202.699C49.4663 210.487 41.0112 223.698 41.0112 242.134C40.9129 248.838 44.1573 255.246 49.6629 261.161C52.0224 263.626 55.8567 265.696 58.5112 267.569ZM90.955 114.562C96.9521 96.0279 82.3033 78.3808 67.4578 75.719C73.6516 80.9441 89.3819 101.647 90.955 114.562Z" fill="white"/>
<path d="M60.5752 50.3813C54.4797 50.2828 49.564 49.1983 44.7466 46.9308C42.7803 46.0435 40.7157 45.1562 38.6511 44.3675C32.064 41.8043 32.4573 41.1142 31.7691 34.4103C31.4741 32.0442 31.5724 29.5795 31.4741 27.2134C31.3758 25.0445 30.2943 23.3685 29.1146 21.7911C26.1651 17.9462 25.8702 14.1999 28.5247 10.0593C31.9657 4.5384 33.4404 3.25678 39.3393 5.72145C48.2859 9.56634 56.1511 6.90449 63.8196 2.86243C72.4713 -1.77116 80.4347 -0.588116 88.1032 5.03134C90.2661 6.60873 90.3645 7.29884 89.283 9.76351C87.2184 14.2985 86.3336 19.2279 85.0555 23.96C83.5808 29.4809 82.7943 35.2975 80.4347 40.6212C79.8448 42.0014 79.4516 43.4803 78.8617 44.8605C78.4684 45.8463 77.9768 46.4379 76.9937 46.4379C73.4544 46.3393 70.505 48.311 67.2606 49.1983C64.8027 49.6912 62.3448 50.4799 60.5752 50.3813Z" fill="white"/>
</svg>
